<svg width="18" height="18" viewBox="0 0 18 18" fill="none" xmlns="http://www.w3.org/2000/svg">
    <g clip-path="url(#clip0_269_38035)">
        <path d="M2.11 11.6002L1.16 15.7002C1.12723 15.8501 1.12836 16.0054 1.16329 16.1548C1.19823 16.3042 1.2661 16.4439 1.36194 16.5637C1.45778 16.6835 1.57917 16.7803 1.71724 16.8472C1.85532 16.9141 2.00659 16.9493 2.16 16.9502C2.23146 16.9579 2.30355 16.9579 2.375 16.9502L6.5 16.0002L14.42 8.1102L10 3.7002L2.11 11.6002Z" fill="#1C1F35"/>
        <path d="M16.91 4.15998L13.96 1.20999C13.766 1.01702 13.5036 0.908691 13.23 0.908691C12.9564 0.908691 12.6939 1.01702 12.5 1.20999L10.86 2.84998L15.275 7.26499L16.915 5.62499C17.011 5.52852 17.087 5.41409 17.1387 5.28822C17.1904 5.16235 17.2167 5.02752 17.2163 4.89145C17.2158 4.75538 17.1885 4.62073 17.136 4.49522C17.0834 4.36971 17.0066 4.25579 16.91 4.15998Z" fill="#1C1F35"/>
    </g>
    <defs>
        <clipPath id="clip0_269_38035">
            <rect width="18" height="18" fill="white"/>
        </clipPath>
    </defs>
</svg>
