<svg width="24" height="24" viewBox="0 0 24 24" fill="none" xmlns="http://www.w3.org/2000/svg">
    <path d="M20 11.5C20 16.568 14.028 19.97 12.404 20.802C12.2791 20.8665 12.1406 20.9002 12 20.9002C11.8594 20.9002 11.7209 20.8665 11.596 20.802C9.972 19.97 4 16.568 4 11.5C4 7 7.876 4 12 4C16.267 4 20 7 20 11.5Z" fill="black" fill-opacity="0.25"/>
    <path d="M8.28635 11.7861L11.7433 15.2431C11.8643 15.3641 11.9253 15.4251 12.0003 15.4251C12.0753 15.4251 12.1363 15.3651 12.2573 15.2431L15.7143 11.7861C16.4623 11.0381 16.5783 9.86611 15.9913 8.98611C15.0763 7.61511 13.0373 7.68511 12.2193 9.11611L12.0783 9.36411C12.0705 9.37782 12.0591 9.38921 12.0454 9.39712C12.0317 9.40504 12.0162 9.40921 12.0003 9.40921C11.9845 9.40921 11.969 9.40504 11.9553 9.39712C11.9416 9.38921 11.9302 9.37782 11.9223 9.36411L11.7813 9.11711C10.9633 7.68511 8.92435 7.61511 8.00935 8.98711C7.42235 9.86711 7.53935 11.0381 8.28635 11.7861Z" fill="black"/>
</svg>
