<svg width="25" height="25" viewBox="0 0 25 25" fill="none" xmlns="http://www.w3.org/2000/svg">

    <path d="M12.4418 1.27549L12.4419 1.27547L15.2898 0.621312C15.2899 0.621298 15.2899 0.621285 15.29 0.621272C15.29 0.621268 15.29 0.621264 15.29 0.621259C15.7926 0.505624 16.3187 0.549527 16.7952 0.746863C17.2715 0.944163 17.6746 1.28503 17.9482 1.72204L12.4418 1.27549ZM12.4418 1.27549C12.2237 1.32563 11.997 1.32563 11.7788 1.27549L11.7787 1.27547L8.93082 0.621312C8.9308 0.621307 8.93078 0.621303 8.93076 0.621298C8.9307 0.621285 8.93065 0.621272 8.93059 0.621259C8.42803 0.505624 7.90192 0.549528 7.42547 0.746863C6.94903 0.944193 6.54596 1.28513 6.27233 1.72223C6.27232 1.72225 6.2723 1.72228 6.27229 1.7223C6.27226 1.72235 6.27222 1.72241 6.27219 1.72246L4.71996 4.19969L4.71966 4.20017C4.60169 4.38892 4.44205 4.54895 4.2517 4.66925C4.25149 4.66938 4.25127 4.66952 4.25106 4.66965L1.77508 6.22109C1.77506 6.22111 1.77504 6.22112 1.77501 6.22114C1.33859 6.49452 0.998094 6.89698 0.800782 7.37266C0.603459 7.84837 0.559125 8.3737 0.673933 8.87575L0.674015 8.87611L1.32822 11.7274C1.32823 11.7274 1.32823 11.7274 1.32823 11.7274C1.37818 11.9452 1.37819 12.1714 1.32824 12.3892C1.32824 12.3892 1.32823 12.3892 1.32822 12.3893L0.674028 15.2389L0.674014 15.239C0.558759 15.7413 0.60287 16.2671 0.800213 16.7432C0.997557 17.2193 1.33833 17.6221 1.77516 17.8956L4.25247 19.4479L4.25296 19.4482C4.44173 19.5662 4.60178 19.7258 4.72208 19.9162C4.7222 19.9164 4.72232 19.9166 4.72243 19.9168L6.27366 22.3924C6.83349 23.2878 7.90089 23.7299 8.9304 23.4939L8.93059 23.4938L11.7787 22.8396L11.7788 22.8396C11.997 22.7894 12.2237 22.7894 12.4419 22.8396L12.442 22.8396L15.2917 23.4938L15.2917 23.4938C15.7941 23.6091 16.3199 23.565 16.796 23.3676C17.2721 23.1703 17.6749 22.8295 17.9484 22.3927L19.5007 19.9154L19.501 19.9149C19.6191 19.7258 19.7786 19.5664 19.9677 19.4482L19.968 19.448L22.4471 17.8956L22.4473 17.8954C22.8842 17.6215 23.2248 17.2183 23.4218 16.7418C23.6187 16.2654 23.6624 15.7395 23.5466 15.2373C23.5466 15.2371 23.5465 15.237 23.5465 15.2368L22.894 12.3894L22.8939 12.3891C22.8438 12.1709 22.8438 11.9442 22.8939 11.726L22.894 11.7259L23.5482 8.87632C23.5482 8.87627 23.5482 8.87622 23.5482 8.87616C23.6636 8.37408 23.6198 7.84852 23.4228 7.37247C23.2258 6.89638 22.8855 6.49346 22.449 6.21968L22.4487 6.21947L19.9699 4.66726C19.7807 4.54864 19.6208 4.38874 19.5022 4.19956L19.5021 4.19949L17.9484 1.72246L12.4418 1.27549ZM10.8774 15.091L11.3329 15.5271L11.6537 14.9842L15.7902 7.98309C15.8311 7.92254 15.8934 7.87947 15.9647 7.86256C16.0382 7.84512 16.1157 7.85689 16.1808 7.8954C16.2458 7.93391 16.2934 7.99617 16.3135 8.06906C16.3331 8.1398 16.3252 8.2152 16.2917 8.28031L11.6482 16.1419C11.6258 16.1797 11.5952 16.2121 11.5585 16.2364C11.5219 16.2608 11.4802 16.2766 11.4367 16.2826C11.3931 16.2886 11.3487 16.2847 11.3069 16.2711C11.2651 16.2576 11.2268 16.2348 11.1951 16.2045C11.195 16.2044 11.195 16.2044 11.195 16.2044L7.97338 13.1174L7.96693 13.1112L7.96026 13.1053C7.93099 13.0792 7.90728 13.0474 7.89054 13.012C7.87381 12.9765 7.86438 12.9381 7.86283 12.8989C7.86128 12.8597 7.86764 12.8206 7.88153 12.7839L7.41393 12.6069L7.88153 12.7839C7.89541 12.7473 7.91654 12.7138 7.94365 12.6854C7.97077 12.6571 8.00331 12.6345 8.03934 12.619C8.07537 12.6036 8.11415 12.5955 8.15336 12.5953C8.19257 12.5951 8.23142 12.6029 8.26757 12.618L8.46096 12.157L8.26758 12.618C8.30374 12.6332 8.33647 12.6555 8.36383 12.6836L8.36992 12.6898L8.37622 12.6959L10.8774 15.091Z" fill="#419E3F" stroke="white"/>
</svg>
